<?xml version="1.0" encoding="UTF-8"?>
<svg id="Calque_1" xmlns="http://www.w3.org/2000/svg" version="1.1" viewBox="130 155 255 90">
  <!-- Generator: Adobe Illustrator 30.4.0, SVG Export Plug-In . SVG Version: 2.1.4 Build 226)  -->
  <defs>
    <style>
      .st0 {
        fill: #AC8F00;
      }
    </style>
  </defs>
  <g>
    <path class="st0" d="M136.01,206.86v-.88c2.19-.69,2.65-2.59,2.65-7.13v-28.16c0-4.55-.46-6.44-2.65-7.13v-.88h12.33v.88c-2.19.69-2.65,2.59-2.65,7.13v31.88c0,2.02,1.19,3.16,3.31,3.16h5.44c6.69,0,10.14-1.52,12.79-6.94l.86.13-.53,7.96h-31.55Z"/>
    <path class="st0" d="M175.39,169.67c-.53.13-1.06.25-1.66.25-2.12,0-3.71-1.52-3.71-3.54,0-2.4,1.59-4.17,4.11-4.17,2.78,0,4.77,1.64,4.77,5.3,0,5.11-4.77,9.91-8.68,11.24l-.33-.63c3.45-1.58,5.24-5.18,5.5-8.46Z"/>
    <path class="st0" d="M182.54,205.98c1.99-.69,3.78-2.34,5.57-6.57l12.4-29.29c.53-1.26.46-2.27-.13-3.41l-.86-1.77,6.5-2.78,16.44,37.31c1.86,4.17,3.58,5.81,5.1,6.5v.88h-12.06v-.88c2.19-.69,1.26-2.34-.6-6.5l-3.98-9.09h-17.7l-3.84,9.03c-1.79,4.23-1.39,6.06.86,6.57v.88h-7.69v-.88ZM210.44,189.37l-8.55-19.51-8.29,19.51h16.84Z"/>
    <path class="st0" d="M238.62,169.99v25.06c0,7.7,1.59,9.91,5.04,10.92v.88h-8.88v-.88c2.19-.69,2.65-2.59,2.65-7.13v-28.16c0-4.55-.6-6.44-3.45-7.13v-.88h7.49l27.84,33.21v-21.4c0-7.7-1.59-9.91-5.04-10.92v-.88h8.95v.88c-2.19.69-2.65,2.59-2.65,7.13v36.68h-.86l-31.09-37.38Z"/>
    <path class="st0" d="M295.16,204.02l-6.56,9.91-1.06-.63,6.56-9.91c-5.5-3.66-9.55-9.85-9.55-18.81,0-12.5,9.68-22.41,23.73-22.41,3.84,0,7.82.88,11.4,2.59l5.77-8.71,1.06.63-5.77,8.65c6.36,3.54,11.2,10.04,11.2,19.63,0,15.4-12.53,22.54-23.66,22.54-4.51,0-9.15-1.14-13.13-3.47ZM297.81,197.77l18.96-28.6c-3.25-3.28-7.29-5.37-11.93-5.37-9.02,0-14.12,6.69-13.39,16.92.46,6.25,2.78,12.44,6.36,17.05ZM325.26,189.94c-.53-7.58-3.31-14.84-7.62-19.82l-19.02,28.66c3.58,4.1,8.22,6.76,13.46,6.76,10.14,0,13.79-7.26,13.19-15.59Z"/>
    <path class="st0" d="M336.26,163.55v-.88h12.2v.88c-2.19.69-1.33,2.34.4,6.57l12.2,29.48,12-29.48c1.72-4.23,1.26-6.06-.99-6.57v-.88h7.69v.88c-1.99.69-3.71,2.34-5.44,6.57l-14.98,36.74h-2.52l-15.58-36.74c-1.72-4.23-3.45-5.87-4.97-6.57Z"/>
  </g>
  <polygon class="st0" points="336.88 230.53 373.33 231.86 336.88 233.19 336.88 230.53 336.88 230.53"/>
  <polygon class="st0" points="336.88 230.53 373.33 231.86 336.88 233.19 336.88 230.53 336.88 230.53"/>
  <polygon class="st0" points="173.69 230.53 137.24 231.86 173.69 233.19 173.69 230.53 173.69 230.53"/>
  <g>
    <path class="st0" d="M191.94,238.17l-2.92-4.66h-.28c-.08,0-.45-.01-1.13-.04v4.7h-1.75v-11.03c.68-.11,1.55-.16,2.6-.16,1.55,0,2.74.27,3.6.81.84.54,1.26,1.35,1.26,2.44,0,.72-.23,1.33-.7,1.85-.49.54-1.11.92-1.87,1.15l3.32,4.95h-2.13ZM190.7,232.09c.51-.47.77-1.09.77-1.88s-.23-1.45-.68-1.88c-.45-.43-1.17-.65-2.15-.65-.41,0-.76.02-1.04.05v5.02c.23.02.46.04.72.04,1.08,0,1.87-.23,2.37-.7Z"/>
    <path class="st0" d="M207.75,237.16v1h-6.86v-11.05h6.76v.99c-1.11-.1-2.25-.14-3.45-.14h-1.58v4.22h.68c1.22,0,2.36-.03,3.43-.09v.99c-1.07-.06-2.21-.09-3.43-.09h-.68v4.32h1.68c1.19,0,2.34-.05,3.45-.14Z"/>
    <path class="st0" d="M215.27,238.13c-.63-.19-1.16-.46-1.58-.81l.58-.86c.43.36.91.63,1.45.81.5.18,1.02.27,1.56.27.72,0,1.29-.18,1.73-.54.43-.33.64-.8.64-1.38,0-.51-.18-.94-.53-1.27s-.9-.68-1.66-1.04l-1.41-.68c-.77-.37-1.31-.8-1.62-1.27-.31-.45-.47-.99-.47-1.6,0-.87.35-1.57,1.06-2.1.7-.53,1.64-.79,2.81-.79.65,0,1.26.07,1.81.22s1.02.34,1.39.59l-.47.84c-.8-.55-1.66-.83-2.58-.83-.73,0-1.31.14-1.75.43-.44.29-.66.69-.66,1.22,0,.47.14.83.41,1.09.31.3.84.63,1.58.99l1.43.72c.79.38,1.36.81,1.71,1.27.35.48.53,1.06.53,1.76,0,.98-.36,1.76-1.09,2.35-.74.6-1.73.9-2.96.9-.69,0-1.33-.1-1.92-.29Z"/>
    <path class="st0" d="M235.48,227.12v.99c-.14-.01-.31-.03-.51-.05-.2-.02-.37-.04-.5-.05s-.25-.02-.35-.02c-.23-.01-.65-.02-1.28-.02h-1.02v10.21h-1.75v-10.21h-1.02c-.63,0-1.05,0-1.26.02-.05,0-.5.04-1.36.13v-.99h9.04Z"/>
    <path class="st0" d="M246.47,234.87h-4.35l-1.24,3.3h-1.36l4.69-11.05h1.06l4.35,11.05h-1.94l-1.21-3.3ZM246.18,234.1l-1.85-5.1-1.92,5.1h3.77Z"/>
    <path class="st0" d="M256.98,237.16c-.78-.85-1.17-2-1.17-3.44v-6.6h1.75v6.06c0,1.28.24,2.31.73,3.1.46.8,1.24,1.2,2.32,1.2,1.21,0,2.05-.34,2.53-1.02.48-.67.72-1.63.72-2.87v-6.48h1.09v6.69c0,1.42-.38,2.55-1.13,3.37-.75.82-1.87,1.24-3.34,1.24-1.57,0-2.74-.42-3.5-1.26Z"/>
    <path class="st0" d="M278.44,238.17l-2.92-4.66h-.28c-.08,0-.45-.01-1.13-.04v4.7h-1.75v-11.03c.68-.11,1.55-.16,2.6-.16,1.55,0,2.74.27,3.6.81.84.54,1.26,1.35,1.26,2.44,0,.72-.23,1.33-.7,1.85-.49.54-1.11.92-1.87,1.15l3.32,4.95h-2.13ZM277.19,232.09c.51-.47.77-1.09.77-1.88s-.23-1.45-.68-1.88c-.45-.43-1.17-.65-2.15-.65-.41,0-.76.02-1.04.05v5.02c.23.02.46.04.72.04,1.08,0,1.87-.23,2.37-.7Z"/>
    <path class="st0" d="M293.02,234.87h-4.35l-1.24,3.3h-1.36l4.69-11.05h1.06l4.35,11.05h-1.94l-1.21-3.3ZM292.74,234.1l-1.85-5.1-1.92,5.1h3.77Z"/>
    <path class="st0" d="M311.78,227.12v11.05h-.92l-7.35-8.36v8.36h-1.06v-11.05h.94l7.35,8.4v-8.4h1.04Z"/>
    <path class="st0" d="M326.84,227.12v.99c-.14-.01-.31-.03-.51-.05-.2-.02-.37-.04-.5-.05s-.25-.02-.35-.02c-.23-.01-.65-.02-1.28-.02h-1.02v10.21h-1.75v-10.21h-1.02c-.63,0-1.05,0-1.26.02-.05,0-.5.04-1.36.13v-.99h9.04Z"/>
  </g>
</svg>
